<?xml version="1.0" encoding="utf-8"?>
<!-- Generator: Adobe Illustrator 17.1.0, SVG Export Plug-In . SVG Version: 6.00 Build 0)  -->
<!DOCTYPE svg PUBLIC "-//W3C//DTD SVG 1.1//EN" "http://www.w3.org/Graphics/SVG/1.1/DTD/svg11.dtd">
<svg version="1.1" xmlns="http://www.w3.org/2000/svg" xmlns:xlink="http://www.w3.org/1999/xlink" x="0px" y="0px" width="347.9px"
	 height="367.4px" viewBox="0 0 347.9 367.4" enable-background="new 0 0 347.9 367.4" xml:space="preserve">
<g id="Слой_1">
	<g>
		<polygon fill="#454547" points="332.9,36.8 108.8,319.7 106.4,336.5 329.1,57.7 		"/>
		
			<linearGradient id="SVGID_2_" gradientUnits="userSpaceOnUse" x1="2460.9294" y1="2088.4575" x2="2781.3057" y2="2088.4575" gradientTransform="matrix(0.9308 -0.3655 0.3655 0.9308 -2991.5176 -820.1321)">
			<stop  offset="0" style="stop-color:#535353"/>
			<stop  offset="1" style="stop-color:#757575"/>
		</linearGradient>
		<polygon fill="url(#SVGID_2_)" points="332.9,36.8 108.8,319.7 89,292 311.6,13.2 		"/>
		<g>
			<polygon fill="#91A3AD" points="25.6,277.8 33.8,298.6 32.1,306.1 48.7,348.4 46.4,351.8 42.8,351.4 27.5,312.2 22.7,311.1 
				15,291.4 9.1,290.3 7.9,287.1 19.4,280.3 			"/>
			<polygon fill="#D6DDE1" points="25.7,309.9 30.4,311.1 46.4,351.8 51.2,346.1 35.1,305 36.7,297.5 27.9,274.9 17.3,288.5 			"/>
			<polygon fill="#E9EDF1" points="18.6,273.3 28.1,274.9 17.3,288.5 7.8,286.9 			"/>
		</g>
		
			<linearGradient id="SVGID_4_" gradientUnits="userSpaceOnUse" x1="2374.5005" y1="2162.5305" x2="2469.2556" y2="2162.5305" gradientTransform="matrix(0.9308 -0.3655 0.3655 0.9308 -2991.5176 -820.1321)">
			<stop  offset="0" style="stop-color:#3E3E3E"/>
			<stop  offset="1" style="stop-color:#252525"/>
		</linearGradient>
		<polygon fill="url(#SVGID_4_)" points="106.4,336.5 17.6,323.3 0,302 0.1,278.8 89,292 108.8,319.7 		"/>
		
			<linearGradient id="SVGID_6_" gradientUnits="userSpaceOnUse" x1="2383.0981" y1="2049.572" x2="2770.0889" y2="2049.572" gradientTransform="matrix(0.9308 -0.3655 0.3655 0.9308 -2991.5176 -820.1321)">
			<stop  offset="0" style="stop-color:#616161"/>
			<stop  offset="1" style="stop-color:#ABABAB"/>
		</linearGradient>
		<polygon fill="url(#SVGID_6_)" points="311.6,13.2 89,292 0.1,278.8 222.8,0 		"/>
		
			<ellipse transform="matrix(0.9308 -0.3655 0.3655 0.9308 -94.1124 38.7986)" fill="#424242" cx="55.4" cy="268" rx="16.6" ry="9.5"/>
		<path fill="#212121" d="M70.9,261.9c1.3,3.4-0.8,7.6-5.1,11c2.4-2.8,3.3-5.9,2.3-8.6c-1.9-4.8-9.6-6.3-17.3-3.3
			c-7.4,2.9-12,8.9-10.6,13.7c-0.1-0.2-0.2-0.4-0.3-0.6c-1.9-4.9,3.5-11.6,12-14.9C60.5,255.8,69,257,70.9,261.9z"/>
		<g>
			<polygon fill="#91A3AD" points="136.2,293.4 144.3,314.2 142.7,321.7 159.3,364 157,367.4 153.4,367 138,327.8 133.3,326.6 
				125.5,307 119.7,305.9 118.4,302.6 129.9,295.9 			"/>
			<polygon fill="#D6DDE1" points="136.2,325.5 141,326.6 157,367.4 161.7,361.7 145.6,320.6 147.3,313.1 138.4,290.5 127.8,304.1 
							"/>
			<polygon fill="#E9EDF1" points="129.2,288.9 138.6,290.5 127.8,304.1 118.3,302.5 			"/>
		</g>
		<g>
			<polygon fill="#91A3AD" points="156.9,267.4 165,288.2 163.3,295.7 179.9,337.9 177.6,341.3 174.1,340.9 158.7,301.7 154,300.6 
				146.2,280.9 140.4,279.8 139.1,276.6 150.6,269.8 			"/>
			<polygon fill="#D6DDE1" points="156.9,299.4 161.7,300.6 177.6,341.3 182.4,335.6 166.3,294.5 168,287 159.1,264.5 148.5,278 			
				"/>
			<polygon fill="#E9EDF1" points="149.8,262.9 159.3,264.4 148.5,278 139,276.5 			"/>
		</g>
		<g>
			<polygon fill="#91A3AD" points="177.4,240.9 185.6,261.7 183.9,269.2 200.5,311.5 198.2,314.9 194.6,314.5 179.2,275.3 
				174.5,274.1 166.8,254.5 160.9,253.4 159.6,250.1 171.1,243.4 			"/>
			<polygon fill="#D6DDE1" points="177.5,273 182.2,274.1 198.2,314.9 203,309.2 186.8,268.1 188.5,260.6 179.7,238 169,251.6 			
				"/>
			<polygon fill="#E9EDF1" points="170.4,236.4 179.9,238 169,251.6 159.6,250 			"/>
		</g>
		<g>
			<polygon fill="#91A3AD" points="198.1,214.9 206.2,235.7 204.6,243.2 221.2,285.4 218.9,288.8 215.3,288.4 199.9,249.2 
				195.2,248.1 187.5,228.4 181.6,227.3 180.3,224.1 191.8,217.3 			"/>
			<polygon fill="#D6DDE1" points="198.1,246.9 202.9,248.1 218.9,288.8 223.7,283.1 207.5,242 209.2,234.5 200.3,212 189.7,225.5 
							"/>
			<polygon fill="#E9EDF1" points="191.1,210.4 200.5,211.9 189.7,225.5 180.3,224 			"/>
		</g>
		<g>
			<polygon fill="#91A3AD" points="218.8,188.2 227,209 225.3,216.5 241.9,258.8 239.6,262.1 236,261.7 220.7,222.6 215.9,221.4 
				208.2,201.7 202.3,200.7 201,197.4 212.5,190.7 			"/>
			<polygon fill="#D6DDE1" points="218.9,220.2 223.6,221.4 239.6,262.1 244.4,256.4 228.3,215.3 229.9,207.8 221.1,185.3 
				210.5,198.8 			"/>
			<polygon fill="#E9EDF1" points="211.8,183.7 221.3,185.2 210.5,198.8 201,197.3 			"/>
		</g>
		<g>
			<polygon fill="#91A3AD" points="239.5,162.1 247.7,182.9 246,190.4 262.6,232.7 260.3,236.1 256.7,235.7 241.3,196.5 
				236.6,195.3 228.9,175.7 223,174.6 221.7,171.3 233.2,164.6 			"/>
			<polygon fill="#D6DDE1" points="239.6,194.2 244.3,195.3 260.3,236.1 265.1,230.4 248.9,189.3 250.6,181.8 241.8,159.2 
				231.1,172.8 			"/>
			<polygon fill="#E9EDF1" points="232.5,157.6 242,159.2 231.1,172.8 221.7,171.2 			"/>
		</g>
		<g>
			<polygon fill="#91A3AD" points="260,135.7 268.2,156.5 266.5,164 283.1,206.3 280.8,209.6 277.3,209.2 261.9,170.1 257.1,168.9 
				249.4,149.2 243.5,148.2 242.3,144.9 253.8,138.2 			"/>
			<polygon fill="#D6DDE1" points="260.1,167.7 264.8,168.9 280.8,209.6 285.6,203.9 269.5,162.8 271.2,155.3 262.3,132.8 
				251.7,146.3 			"/>
			<polygon fill="#E9EDF1" points="253,131.2 262.5,132.7 251.7,146.3 242.2,144.8 			"/>
		</g>
		<g>
			<polygon fill="#91A3AD" points="280.7,109.6 288.9,130.4 287.2,137.9 303.8,180.2 301.5,183.6 297.9,183.2 282.6,144 
				277.8,142.8 270.1,123.2 264.2,122.1 263,118.8 274.5,112.1 			"/>
			<polygon fill="#D6DDE1" points="280.8,141.7 285.5,142.8 301.5,183.6 306.3,177.9 290.2,136.8 291.8,129.3 283,106.7 
				272.4,120.3 			"/>
			<polygon fill="#E9EDF1" points="273.7,105.1 283.2,106.7 272.4,120.3 262.9,118.7 			"/>
		</g>
		<g>
			<polygon fill="#91A3AD" points="301.6,82.9 309.8,103.7 308.1,111.2 324.7,153.5 322.4,156.9 318.8,156.5 303.4,117.3 
				298.7,116.1 291,96.4 285.1,95.4 283.8,92.1 295.3,85.4 			"/>
			<polygon fill="#D6DDE1" points="301.7,115 306.4,116.1 322.4,156.9 327.2,151.1 311,110 312.7,102.6 303.9,80 293.2,93.5 			"/>
			<polygon fill="#E9EDF1" points="294.6,78.4 304.1,80 293.2,93.5 283.8,92 			"/>
		</g>
		<g>
			<polygon fill="#91A3AD" points="322.3,56.9 330.4,77.7 328.8,85.1 345.4,127.4 343.1,130.8 339.5,130.4 324.1,91.2 319.4,90.1 
				311.7,70.4 305.8,69.3 304.5,66.1 316,59.3 			"/>
			<polygon fill="#D6DDE1" points="322.3,88.9 327.1,90.1 343.1,130.8 347.9,125.1 331.7,84 333.4,76.5 324.5,54 313.9,67.5 			"/>
			<polygon fill="#E9EDF1" points="315.3,52.3 324.7,53.9 313.9,67.5 304.5,65.9 			"/>
		</g>
	</g>
</g>
<g id="Слой_2">
</g>
<g id="Слой_3">
</g>
<g id="Слой_4">
</g>
<g id="Слой_5">
</g>
</svg>
