<?xml version="1.0" encoding="utf-8"?>
<!-- Generator: Adobe Illustrator 17.1.0, SVG Export Plug-In . SVG Version: 6.00 Build 0)  -->
<!DOCTYPE svg PUBLIC "-//W3C//DTD SVG 1.1//EN" "http://www.w3.org/Graphics/SVG/1.1/DTD/svg11.dtd">
<svg version="1.1" xmlns="http://www.w3.org/2000/svg" xmlns:xlink="http://www.w3.org/1999/xlink" x="0px" y="0px" width="306.3px"
	 height="371.7px" viewBox="0 0 306.3 371.7" enable-background="new 0 0 306.3 371.7" xml:space="preserve">
<g id="Слой_1">
	<g>
		
			<rect x="73.2" y="130.4" transform="matrix(0.8159 0.5783 -0.5783 0.8159 164.2745 1.9988)" fill="#CFD8DD" width="11.5" height="257"/>
		
			<rect x="73.8" y="128.8" transform="matrix(0.8159 0.5783 -0.5783 0.8159 162.9511 2.9964)" fill="#96A8B0" width="6" height="257"/>
		
			<rect x="124.4" y="135" transform="matrix(0.8159 0.5783 -0.5783 0.8159 176.3416 -26.7532)" fill="#CFD8DD" width="11.5" height="257"/>
		
			<rect x="124.9" y="133.4" transform="matrix(0.8159 0.5783 -0.5783 0.8159 175.0182 -25.7556)" fill="#96A8B0" width="6" height="257"/>
		
			<linearGradient id="SVGID_2_" gradientUnits="userSpaceOnUse" x1="-4323.002" y1="-1382.5228" x2="-4194.1226" y2="-1382.5228" gradientTransform="matrix(0.8159 0.5783 -0.5783 0.8159 2849.2312 3753.5801)">
			<stop  offset="0" style="stop-color:#FF4C52"/>
			<stop  offset="0.5" style="stop-color:#FD1945"/>
			<stop  offset="1" style="stop-color:#FC4B4C"/>
		</linearGradient>
		<path fill="url(#SVGID_2_)" d="M129.8,114.4c-12.6,17.8,0.7,49,29.7,69.6s62.8,22.8,75.5,5l6.6-9.4L136.5,105L129.8,114.4z"/>
		
			<ellipse transform="matrix(0.8159 0.5783 -0.5783 0.8159 117.0865 -83.1307)" fill="#FF877E" cx="189.1" cy="142.3" rx="64.4" ry="40.7"/>
		
			<linearGradient id="SVGID_4_" gradientUnits="userSpaceOnUse" x1="-4314.8389" y1="-1472.4178" x2="-4202.2856" y2="-1472.4178" gradientTransform="matrix(0.8159 0.5783 -0.5783 0.8159 2849.2312 3753.5801)">
			<stop  offset="0" style="stop-color:#FF4C52"/>
			<stop  offset="0.5" style="stop-color:#FD1945"/>
			<stop  offset="1" style="stop-color:#FC4B4C"/>
		</linearGradient>
		<path fill="url(#SVGID_4_)" d="M295.9,88.8c18-25.3,12-60.5-13.4-78.4s-60.5-12-78.4,13.4l-61,86c-10.5,14.9,1.5,41.5,26.8,59.4
			s54.5,20.5,65,5.6L295.9,88.8z"/>
		<path fill="#DB2333" d="M259.9,89.7l-65.1,91.9c-3.8-1.2-7.7-2.7-11.5-4.6l48.4-68.3l-22.2-2l32.1-19L259.9,89.7z"/>
		<path fill="#DB2333" d="M232.8,86.8l-32.2,19.1l-5.1-0.5l-37.8,53.3c-3.3-3.3-5.3-6.2-7.8-9.6l46.6-65.7L232.8,86.8z"/>
		
			<linearGradient id="SVGID_6_" gradientUnits="userSpaceOnUse" x1="-4229.6826" y1="-1377.7432" x2="-4229.6826" y2="-1556.1918" gradientTransform="matrix(0.8159 0.5783 -0.5783 0.8159 2849.2312 3753.5801)">
			<stop  offset="0" style="stop-color:#FFFFFF;stop-opacity:0.1"/>
			<stop  offset="1" style="stop-color:#FFFFFF;stop-opacity:0.35"/>
		</linearGradient>
		<path fill="url(#SVGID_6_)" d="M241.9,106.4l35.9-50.7c6.2-8.7,8.9-18.4,8.1-26.4c11.1,14.9,11.9,35.8,0.6,51.8l-73.2,103.4
			c-7.2,0.2-15.3-1.4-23.6-4.6l50.9-71.8C241,107.5,241.5,107,241.9,106.4z"/>
		
			<linearGradient id="SVGID_8_" gradientUnits="userSpaceOnUse" x1="-4287.4326" y1="-1377.7432" x2="-4287.4326" y2="-1556.1918" gradientTransform="matrix(0.8159 0.5783 -0.5783 0.8159 2849.2312 3753.5801)">
			<stop  offset="0" style="stop-color:#FFFFFF;stop-opacity:0.2"/>
			<stop  offset="1" style="stop-color:#FFFFFF;stop-opacity:0.5"/>
		</linearGradient>
		<path fill="url(#SVGID_8_)" d="M205.4,80.5c-0.4,0.6-0.9,1.3-1.2,2l-50.8,71.7c-5.8-6.8-10-13.9-12.2-20.7l73.3-103.4
			c11.3-16,31.4-22.1,49.1-16.6c-7.8,1.9-16.1,7.7-22.2,16.3L205.4,80.5z"/>
	</g>
</g>
<g id="Слой_2">
</g>
<g id="Слой_3">
</g>
<g id="Слой_4">
</g>
<g id="Слой_5">
</g>
</svg>
