<?xml version="1.0" encoding="utf-8"?>
<!-- Generator: Adobe Illustrator 17.1.0, SVG Export Plug-In . SVG Version: 6.00 Build 0)  -->
<!DOCTYPE svg PUBLIC "-//W3C//DTD SVG 1.1//EN" "http://www.w3.org/Graphics/SVG/1.1/DTD/svg11.dtd">
<svg version="1.1" xmlns="http://www.w3.org/2000/svg" xmlns:xlink="http://www.w3.org/1999/xlink" x="0px" y="0px" width="357.8px"
	 height="372.7px" viewBox="0 0 357.8 372.7" enable-background="new 0 0 357.8 372.7" xml:space="preserve">
<g id="Слой_1">
	<g>
		
			<linearGradient id="SVGID_2_" gradientUnits="userSpaceOnUse" x1="-1542.2949" y1="-4566.8535" x2="-1484.3853" y2="-4566.8535" gradientTransform="matrix(0.8735 0.4868 -0.4868 0.8735 -705.9322 5074.3306)">
			<stop  offset="0" style="stop-color:#353435"/>
			<stop  offset="1" style="stop-color:#202121"/>
		</linearGradient>
		<path fill="url(#SVGID_2_)" d="M214.7,372.7c-3.5-4-8.2-7.8-13.7-10.9c-10.9-6.1-22.3-7.8-30-5.4c0,0-11.6-22.2,7.8-28.6
			c19.4-6.4,49.4,20.5,49.4,20.5L214.7,372.7z"/>
		
			<linearGradient id="SVGID_4_" gradientUnits="userSpaceOnUse" x1="-1753.432" y1="-4569.4619" x2="-1618.4994" y2="-4569.4619" gradientTransform="matrix(0.8735 0.4868 -0.4868 0.8735 -705.9322 5074.3306)">
			<stop  offset="0" style="stop-color:#222222"/>
			<stop  offset="1" style="stop-color:#363837"/>
		</linearGradient>
		<path fill="url(#SVGID_4_)" d="M3.1,199.8c-1.2,2.1-2.2,4.4-3.1,6.7l79.7,133.1l16.7-30L12,184.9L3.1,199.8z"/>
		
			<linearGradient id="SVGID_6_" gradientUnits="userSpaceOnUse" x1="-1618.4994" y1="-4575.686" x2="-1458.6163" y2="-4575.686" gradientTransform="matrix(0.8735 0.4868 -0.4868 0.8735 -705.9322 5074.3306)">
			<stop  offset="0" style="stop-color:#232323"/>
			<stop  offset="0.4032" style="stop-color:#414141"/>
			<stop  offset="1" style="stop-color:#464646"/>
		</linearGradient>
		<path fill="url(#SVGID_6_)" d="M162.3,372.2c-23-4.1-47.7-12.9-71.9-26.3c-3.7-2-7.3-4.2-10.8-6.3l12.9-23.2l182.4,0.6l-12,21.5
			c-0.7,1.7-1.5,3.3-2.4,4.9c-8.7,15.6-25,25.4-45.9,29.4l16.8-30.1l-5.9-12.3l-51.9-7.1l-5.7,17.9l6.3,9.4L162.3,372.2z"/>
		
			<linearGradient id="SVGID_8_" gradientUnits="userSpaceOnUse" x1="-1753.432" y1="-4627.8179" x2="-1458.6163" y2="-4627.8179" gradientTransform="matrix(0.8735 0.4868 -0.4868 0.8735 -705.9322 5074.3306)">
			<stop  offset="0" style="stop-color:#424242"/>
			<stop  offset="1" style="stop-color:#5F5F5F"/>
		</linearGradient>
		<path fill="url(#SVGID_8_)" d="M272.6,321.8c-8.7,15.6-25,25.4-45.9,29.4c-3.5-4-8.2-7.8-13.7-10.9c-15.8-8.8-32.7-8.5-37.8,0.6
			c-1.6,2.8-1.8,6.2-0.9,9.8c-23-4.1-47.7-12.9-71.9-26.3c-3.7-2-7.3-4.2-10.8-6.3L12,184.9c0.9-2.3,1.9-4.5,3.1-6.7
			c8.4-15,23.9-24.7,43.8-29c3,2.9,6.7,5.6,10.8,7.9c15.8,8.8,32.7,8.5,37.8-0.6c1.3-2.3,1.7-5,1.3-7.9c24.3,3.7,50.7,12.7,76.5,27
			c2.7,1.5,5.4,3.1,8,4.6L275,316.9C274.3,318.6,273.5,320.2,272.6,321.8z"/>
		
			<linearGradient id="SVGID_10_" gradientUnits="userSpaceOnUse" x1="-1704.296" y1="-4661.8081" x2="-1507.0876" y2="-4661.8081" gradientTransform="matrix(0.8735 0.4868 -0.4868 0.8735 -705.9322 5074.3306)">
			<stop  offset="0" style="stop-color:#CF4A18"/>
			<stop  offset="0.2796" style="stop-color:#FCC846"/>
			<stop  offset="0.672" style="stop-color:#C23A0C"/>
			<stop  offset="1" style="stop-color:#EF6F1C"/>
		</linearGradient>
		<path fill="url(#SVGID_10_)" d="M53.4,210.5c-12.7,22.8,15.6,62.8,63.1,89.3s96.4,29.5,109.1,6.7l65.3-117.2l-172.3-96L53.4,210.5
			z"/>
		<g>
			<g>
				<path fill="#BE4102" d="M232.3,294.5c0,0-0.1,0.2-0.3,0.6c-0.2,0.4-0.5,1-1,1.7c-1,1.4-2.5,3.5-5.1,5.6c-2.5,2.1-6,4.1-10.4,5.7
					c-2.2,0.8-4.5,1.4-7,2c-2.5,0.5-5.2,0.7-8,0.8c-5.6,0.3-11.7,0-18.1-0.9c-6.3-0.9-13-2.3-19.7-4.2c-13.4-3.9-27.2-9.7-40.1-16.9
					c-6.5-3.6-12.8-7.6-18.7-11.8c-6-4.2-11.6-8.7-16.8-13.4c-5.2-4.7-9.8-9.6-13.9-14.5c-4.1-4.9-7.5-10-10.3-14.9
					c-1.3-2.5-2.6-4.9-3.5-7.3c-0.9-2.4-1.6-4.8-2-7c-1-4.5-1.1-8.6-0.6-11.8c0.4-3.3,1.4-5.7,2.1-7.3c0.4-0.8,0.7-1.4,0.9-1.8
					c0.2-0.4,0.3-0.6,0.3-0.6s-0.1,0.2-0.3,0.6c-0.2,0.4-0.5,1-0.8,1.8c-0.6,1.6-1.2,4.1-1.4,7.3c-0.2,3.2,0.2,7.1,1.5,11.3
					c0.6,2.1,1.5,4.3,2.5,6.6c0.5,1.1,1.1,2.3,1.6,3.5c0.6,1.2,1.1,2.4,1.8,3.5c2.7,4.8,6,9.7,10,14.5c4,4.8,8.6,9.6,13.7,14.2
					c5.1,4.6,10.7,9.1,16.5,13.2c5.9,4.2,12.1,8.1,18.5,11.7c12.8,7.1,26.4,12.9,39.6,16.7c6.6,1.9,13.1,3.3,19.3,4.2
					c6.2,0.9,12.2,1.1,17.6,0.9c1.4,0,2.7-0.2,4-0.3c1.3-0.2,2.5-0.3,3.8-0.5c2.4-0.3,4.8-0.7,6.9-1.4c4.3-1.2,7.8-2.8,10.4-4.7
					c2.6-1.8,4.3-3.7,5.4-5c0.5-0.7,0.9-1.2,1.1-1.6C232.2,294.7,232.3,294.5,232.3,294.5z"/>
			</g>
			<g>
				<path fill="#BE4102" d="M238.9,282.6c0,0-0.1,0.2-0.3,0.6c-0.2,0.4-0.5,1-1,1.7c-1,1.4-2.5,3.5-5.1,5.6c-2.5,2.1-6,4.1-10.4,5.7
					c-2.2,0.8-4.5,1.4-7,2c-2.5,0.5-5.2,0.7-8,0.8c-5.6,0.3-11.7,0-18.1-0.9c-6.3-0.9-13-2.3-19.7-4.2c-13.4-3.9-27.2-9.7-40.1-16.9
					c-6.5-3.6-12.8-7.6-18.7-11.8c-6-4.2-11.6-8.7-16.8-13.4c-5.2-4.7-9.8-9.6-13.9-14.5c-4.1-4.9-7.5-10-10.3-14.9
					c-1.3-2.5-2.6-4.9-3.5-7.3c-0.9-2.4-1.6-4.8-2-7c-1-4.5-1.1-8.6-0.6-11.8c0.4-3.3,1.4-5.7,2.1-7.3c0.4-0.8,0.7-1.4,0.9-1.8
					c0.2-0.4,0.3-0.6,0.3-0.6s-0.1,0.2-0.3,0.6c-0.2,0.4-0.5,1-0.8,1.8c-0.6,1.6-1.2,4.1-1.4,7.3c-0.2,3.2,0.2,7.1,1.5,11.3
					c0.6,2.1,1.5,4.3,2.5,6.6c0.5,1.1,1.1,2.3,1.6,3.5c0.6,1.2,1.1,2.4,1.8,3.5c2.7,4.8,6,9.7,10,14.5c4,4.8,8.6,9.6,13.7,14.2
					c5.1,4.6,10.7,9.1,16.5,13.2c5.9,4.2,12.1,8.1,18.5,11.7c12.8,7.1,26.4,12.9,39.6,16.7c6.6,1.9,13.1,3.3,19.3,4.2
					c6.2,0.9,12.2,1.1,17.6,0.9c1.4,0,2.7-0.2,4-0.3c1.3-0.2,2.5-0.3,3.8-0.5c2.4-0.3,4.8-0.7,6.9-1.4c4.3-1.2,7.8-2.8,10.4-4.7
					c2.6-1.8,4.3-3.7,5.4-5c0.5-0.7,0.9-1.2,1.1-1.6C238.8,282.8,238.9,282.6,238.9,282.6z"/>
			</g>
			<g>
				<path fill="#BE4102" d="M245.6,270.7c0,0-0.1,0.2-0.3,0.6c-0.2,0.4-0.5,1-1,1.7c-1,1.4-2.5,3.5-5.1,5.6c-2.5,2.1-6,4.1-10.4,5.7
					c-2.2,0.8-4.5,1.4-7,2c-2.5,0.5-5.2,0.7-8,0.8c-5.6,0.3-11.7,0-18.1-0.9c-6.3-0.9-13-2.3-19.7-4.2c-13.4-3.9-27.2-9.7-40.1-16.9
					c-6.5-3.6-12.8-7.6-18.7-11.8c-6-4.2-11.6-8.7-16.8-13.4c-5.2-4.7-9.8-9.6-13.9-14.5c-4.1-4.9-7.5-10-10.3-14.9
					c-1.3-2.5-2.6-4.9-3.5-7.3c-0.9-2.4-1.6-4.8-2-7c-1-4.5-1.1-8.6-0.6-11.8c0.4-3.3,1.4-5.7,2.1-7.3c0.4-0.8,0.7-1.4,0.9-1.8
					c0.2-0.4,0.3-0.6,0.3-0.6s-0.1,0.2-0.3,0.6c-0.2,0.4-0.5,1-0.8,1.8c-0.6,1.6-1.2,4.1-1.4,7.3c-0.2,3.2,0.2,7.1,1.5,11.3
					c0.6,2.1,1.5,4.3,2.5,6.6c0.5,1.1,1.1,2.3,1.6,3.5c0.6,1.2,1.1,2.4,1.8,3.5c2.7,4.8,6,9.7,10,14.5c4,4.8,8.6,9.6,13.7,14.2
					c5.1,4.6,10.7,9.1,16.5,13.2c5.9,4.2,12.1,8.1,18.5,11.7c12.8,7.1,26.4,12.9,39.6,16.7c6.6,1.9,13.1,3.3,19.3,4.2
					c6.2,0.9,12.2,1.2,17.6,0.9c1.4,0,2.7-0.2,4-0.3c1.3-0.2,2.5-0.3,3.8-0.5c2.4-0.3,4.8-0.7,6.9-1.4c4.3-1.2,7.8-2.8,10.4-4.7
					c2.6-1.8,4.3-3.7,5.4-5c0.5-0.7,0.9-1.2,1.1-1.6C245.4,270.9,245.6,270.7,245.6,270.7z"/>
			</g>
			<g>
				<path fill="#BE4102" d="M252.2,258.8c0,0-0.1,0.2-0.3,0.6c-0.2,0.4-0.5,1-1,1.7c-1,1.4-2.5,3.5-5.1,5.6c-2.5,2.1-6,4.1-10.4,5.7
					c-2.2,0.8-4.5,1.4-7,2c-2.5,0.5-5.2,0.7-8,0.8c-5.6,0.3-11.7,0-18.1-0.9c-6.3-0.9-13-2.3-19.7-4.2c-6.7-1.9-13.5-4.4-20.2-7.2
					c-6.7-2.8-13.4-6.1-19.9-9.7l-4.8-2.8c-1.6-1-3.2-1.9-4.8-2.9c-3.1-2-6.2-4-9.2-6.1c-6-4.2-11.6-8.7-16.8-13.4
					c-5.2-4.7-9.8-9.6-13.9-14.5c-4.1-4.9-7.5-10-10.3-14.9c-1.3-2.5-2.6-4.9-3.5-7.3c-0.9-2.4-1.6-4.8-2-7c-1-4.5-1.1-8.6-0.6-11.8
					c0.4-3.3,1.4-5.7,2.1-7.3c0.4-0.8,0.7-1.4,0.9-1.8c0.2-0.4,0.3-0.6,0.3-0.6s-0.1,0.2-0.3,0.6c-0.2,0.4-0.5,1-0.8,1.8
					c-0.6,1.6-1.2,4.1-1.4,7.3c-0.2,3.2,0.2,7.1,1.5,11.3c0.6,2.1,1.5,4.3,2.5,6.6c0.5,1.1,1.1,2.3,1.6,3.5c0.6,1.2,1.1,2.4,1.8,3.5
					c2.7,4.8,6,9.7,10,14.5c4,4.8,8.6,9.6,13.7,14.2c5.1,4.6,10.7,9.1,16.5,13.2c2.9,2.1,6,4.1,9.1,6.1c1.5,1,3.1,1.9,4.7,2.9
					l4.8,2.8c6.4,3.6,13,6.8,19.7,9.6c6.7,2.8,13.4,5.2,20,7.1c6.6,1.9,13.1,3.3,19.3,4.2c6.2,0.9,12.2,1.1,17.6,0.9
					c1.4,0,2.7-0.2,4-0.3c1.3-0.2,2.5-0.3,3.8-0.5c2.4-0.3,4.8-0.7,6.9-1.4c4.3-1.2,7.8-2.8,10.4-4.7c2.6-1.8,4.3-3.7,5.4-5
					c0.5-0.7,0.9-1.2,1.1-1.6C252.1,258.9,252.2,258.8,252.2,258.8z"/>
			</g>
			<g>
				<path fill="#BE4102" d="M258.9,246.8c0,0-0.1,0.2-0.3,0.6c-0.2,0.4-0.5,1-1,1.7c-1,1.4-2.5,3.5-5.1,5.6c-2.5,2.1-6,4.1-10.4,5.7
					c-2.2,0.8-4.5,1.4-7,2c-2.5,0.5-5.2,0.7-8,0.8c-5.6,0.3-11.7,0-18.1-0.9c-6.3-0.9-13-2.3-19.7-4.2c-6.7-1.9-13.5-4.4-20.2-7.2
					c-6.7-2.8-13.4-6.1-19.9-9.7l-4.8-2.8c-1.6-1-3.2-1.9-4.8-2.9c-3.1-2-6.2-4-9.2-6.1c-6-4.2-11.6-8.7-16.8-13.4
					c-5.2-4.7-9.8-9.6-13.9-14.5c-4.1-4.9-7.5-10-10.3-14.9c-1.3-2.5-2.6-4.9-3.5-7.3c-0.9-2.4-1.6-4.8-2-7c-1-4.5-1.1-8.6-0.6-11.8
					c0.4-3.3,1.4-5.7,2.1-7.3c0.4-0.8,0.7-1.4,0.9-1.8c0.2-0.4,0.3-0.6,0.3-0.6s-0.1,0.2-0.3,0.6c-0.2,0.4-0.5,1-0.8,1.8
					c-0.6,1.6-1.2,4.1-1.4,7.3c-0.2,3.2,0.2,7.1,1.5,11.3c0.6,2.1,1.5,4.3,2.5,6.6c0.5,1.1,1.1,2.3,1.6,3.5c0.6,1.2,1.1,2.4,1.8,3.5
					c2.7,4.8,6,9.7,10,14.5c4,4.8,8.6,9.6,13.7,14.2c5.1,4.6,10.7,9.1,16.5,13.2c2.9,2.1,6,4.1,9.1,6.1c1.5,1,3.1,1.9,4.7,2.9
					l4.8,2.8c6.4,3.6,13,6.8,19.7,9.6c6.7,2.8,13.4,5.2,20,7.1c6.6,1.9,13.1,3.3,19.3,4.2c6.2,0.9,12.2,1.1,17.6,0.9
					c1.4,0,2.7-0.2,4-0.3c1.3-0.2,2.5-0.3,3.8-0.5c2.4-0.3,4.8-0.7,6.9-1.4c4.3-1.2,7.8-2.8,10.4-4.7c2.6-1.8,4.3-3.7,5.4-5
					c0.5-0.7,0.9-1.2,1.1-1.6C258.7,247,258.9,246.8,258.9,246.8z"/>
			</g>
			<g>
				<path fill="#BE4102" d="M265.5,234.9c0,0-0.1,0.2-0.3,0.6c-0.2,0.4-0.5,1-1,1.7c-1,1.4-2.5,3.5-5.1,5.6c-2.5,2.1-6,4.1-10.4,5.7
					c-2.2,0.8-4.5,1.4-7,2c-2.5,0.5-5.2,0.7-8,0.8c-5.6,0.3-11.7,0-18.1-0.9c-6.3-0.9-13-2.3-19.7-4.2c-6.7-1.9-13.5-4.4-20.2-7.2
					c-6.7-2.8-13.4-6.1-19.9-9.7l-4.8-2.8c-1.6-1-3.2-1.9-4.8-2.9c-3.1-2-6.2-4-9.2-6.1c-6-4.2-11.6-8.7-16.8-13.4
					c-5.2-4.7-9.8-9.6-13.9-14.5c-4.1-4.9-7.5-10-10.3-14.9c-1.3-2.5-2.6-4.9-3.5-7.3c-0.9-2.4-1.6-4.8-2-7c-1-4.5-1.1-8.6-0.6-11.8
					c0.4-3.3,1.4-5.7,2.1-7.3c0.4-0.8,0.7-1.4,0.9-1.8c0.2-0.4,0.3-0.6,0.3-0.6s-0.1,0.2-0.3,0.6c-0.2,0.4-0.5,1-0.8,1.8
					c-0.6,1.6-1.2,4.1-1.4,7.3c-0.2,3.2,0.2,7.1,1.5,11.3c0.6,2.1,1.5,4.3,2.5,6.6c0.5,1.1,1.1,2.3,1.6,3.5c0.6,1.2,1.1,2.4,1.8,3.5
					c2.7,4.8,6,9.7,10,14.5c4,4.8,8.6,9.6,13.7,14.2c5.1,4.6,10.7,9.1,16.5,13.2c2.9,2.1,6,4.1,9.1,6.1c1.5,1,3.1,1.9,4.7,2.9
					l4.8,2.8c6.4,3.6,13,6.8,19.7,9.6c6.7,2.8,13.4,5.2,20,7.1c6.6,1.9,13.1,3.3,19.3,4.2c6.2,0.9,12.2,1.1,17.6,0.9
					c1.4,0,2.7-0.2,4-0.3c1.3-0.2,2.5-0.3,3.8-0.5c2.4-0.3,4.8-0.7,6.9-1.4c4.3-1.2,7.8-2.8,10.4-4.7c2.6-1.8,4.3-3.7,5.4-5
					c0.5-0.7,0.9-1.2,1.1-1.6C265.4,235.1,265.5,234.9,265.5,234.9z"/>
			</g>
			<g>
				<path fill="#BE4102" d="M272.2,223c0,0-0.1,0.2-0.3,0.6c-0.2,0.4-0.5,1-1,1.7c-1,1.4-2.5,3.5-5.1,5.6c-2.5,2.1-6,4.1-10.4,5.7
					c-2.2,0.8-4.5,1.4-7,2c-2.5,0.5-5.2,0.7-8,0.8c-5.6,0.3-11.7,0-18.1-0.9c-6.3-0.9-13-2.3-19.7-4.2c-13.4-3.9-27.2-9.7-40.1-16.9
					c-6.5-3.6-12.8-7.6-18.7-11.8c-6-4.2-11.6-8.7-16.8-13.4c-5.2-4.7-9.8-9.6-13.9-14.5c-4.1-4.9-7.5-10-10.3-14.9
					c-1.3-2.5-2.6-4.9-3.5-7.3c-0.9-2.4-1.6-4.8-2-7c-1-4.5-1.1-8.6-0.6-11.8c0.4-3.3,1.4-5.7,2.1-7.3c0.4-0.8,0.7-1.4,0.9-1.8
					c0.2-0.4,0.3-0.6,0.3-0.6s-0.1,0.2-0.3,0.6c-0.2,0.4-0.5,1-0.8,1.8c-0.6,1.6-1.2,4.1-1.4,7.3c-0.2,3.2,0.2,7.1,1.5,11.3
					c0.6,2.1,1.5,4.3,2.5,6.6c0.5,1.1,1.1,2.3,1.6,3.5c0.6,1.2,1.1,2.4,1.8,3.5c2.7,4.8,6,9.7,10,14.5c4,4.8,8.6,9.6,13.7,14.2
					c5.1,4.6,10.7,9.1,16.5,13.2c5.9,4.2,12.1,8.1,18.5,11.7c12.8,7.1,26.4,12.9,39.6,16.7c6.6,1.9,13.1,3.3,19.3,4.2
					c6.2,0.9,12.2,1.1,17.6,0.9c1.4,0,2.7-0.2,4-0.3c1.3-0.2,2.5-0.3,3.8-0.5c2.4-0.3,4.8-0.7,6.9-1.4c4.3-1.2,7.8-2.8,10.4-4.7
					c2.6-1.8,4.3-3.7,5.4-5c0.5-0.7,0.9-1.2,1.1-1.6C272,223.2,272.2,223,272.2,223z"/>
			</g>
			<g>
				<path fill="#BE4102" d="M278.8,211.1c0,0-0.1,0.2-0.3,0.6c-0.2,0.4-0.5,1-1,1.7c-1,1.4-2.5,3.5-5.1,5.6c-2.5,2.1-6,4.1-10.4,5.7
					c-2.2,0.8-4.5,1.4-7,2c-2.5,0.5-5.2,0.7-8,0.8c-5.6,0.3-11.7,0-18.1-0.9c-6.3-0.9-13-2.3-19.7-4.2c-13.4-3.9-27.2-9.7-40.1-16.9
					c-6.5-3.6-12.8-7.6-18.7-11.8c-6-4.2-11.6-8.7-16.8-13.4c-5.2-4.7-9.8-9.6-13.9-14.5c-4.1-4.9-7.5-10-10.3-14.9
					c-1.3-2.5-2.6-4.9-3.5-7.3c-0.9-2.4-1.6-4.8-2-7c-1-4.5-1.1-8.6-0.6-11.8c0.4-3.3,1.4-5.7,2.1-7.3c0.4-0.8,0.7-1.4,0.9-1.8
					c0.2-0.4,0.3-0.6,0.3-0.6s-0.1,0.2-0.3,0.6c-0.2,0.4-0.5,1-0.8,1.8c-0.6,1.6-1.2,4.1-1.4,7.3c-0.2,3.2,0.2,7.1,1.5,11.3
					c0.6,2.1,1.5,4.3,2.5,6.6c0.5,1.1,1.1,2.3,1.6,3.5c0.6,1.2,1.1,2.4,1.8,3.5c2.7,4.8,6,9.7,10,14.5c4,4.8,8.6,9.6,13.7,14.2
					c5.1,4.6,10.7,9.1,16.5,13.2c5.9,4.2,12.1,8.1,18.5,11.7c12.8,7.1,26.4,12.9,39.6,16.7c6.6,1.9,13.1,3.3,19.3,4.2
					c6.2,0.9,12.2,1.1,17.6,0.9c1.4,0,2.7-0.2,4-0.3c1.3-0.2,2.5-0.3,3.8-0.5c2.4-0.3,4.8-0.7,6.9-1.4c4.3-1.2,7.8-2.8,10.4-4.7
					c2.6-1.8,4.3-3.7,5.4-5c0.5-0.7,0.9-1.2,1.1-1.6C278.7,211.2,278.8,211.1,278.8,211.1z"/>
			</g>
			<g>
				<path fill="#BE4102" d="M285.4,199.1c0,0-0.1,0.2-0.3,0.6c-0.2,0.4-0.5,1-1,1.7c-1,1.4-2.5,3.5-5.1,5.6c-2.5,2.1-6,4.1-10.4,5.7
					c-2.2,0.8-4.5,1.4-7,2c-2.5,0.5-5.2,0.7-8,0.8c-5.6,0.3-11.7,0-18.1-0.9c-6.3-0.9-13-2.3-19.7-4.2c-13.4-3.9-27.2-9.7-40.1-16.9
					c-6.5-3.6-12.8-7.6-18.7-11.8c-6-4.2-11.6-8.7-16.8-13.4c-5.2-4.7-9.8-9.6-13.9-14.5c-4.1-4.9-7.5-10-10.3-14.9
					c-1.3-2.5-2.6-4.9-3.5-7.3c-0.9-2.4-1.6-4.8-2-7c-1-4.5-1.1-8.6-0.6-11.8c0.4-3.3,1.4-5.7,2.1-7.3c0.4-0.8,0.7-1.4,0.9-1.8
					c0.2-0.4,0.3-0.6,0.3-0.6s-0.1,0.2-0.3,0.6c-0.2,0.4-0.5,1-0.8,1.8c-0.6,1.6-1.2,4.1-1.4,7.3c-0.2,3.2,0.2,7.1,1.5,11.3
					c0.6,2.1,1.5,4.3,2.5,6.6c0.5,1.1,1.1,2.3,1.6,3.5c0.6,1.2,1.1,2.4,1.8,3.5c2.7,4.8,6,9.7,10,14.5c4,4.8,8.6,9.6,13.7,14.2
					c5.1,4.6,10.7,9.1,16.5,13.2c5.9,4.2,12.1,8.1,18.5,11.7c12.8,7.1,26.4,12.9,39.6,16.7c6.6,1.9,13.1,3.3,19.3,4.2
					c6.2,0.9,12.2,1.2,17.6,0.9c1.4,0,2.7-0.2,4-0.3c1.3-0.2,2.5-0.3,3.8-0.5c2.4-0.3,4.8-0.7,6.9-1.4c4.3-1.2,7.8-2.8,10.4-4.7
					c2.6-1.8,4.3-3.7,5.4-5c0.5-0.7,0.9-1.2,1.1-1.6C285.3,199.3,285.4,199.1,285.4,199.1z"/>
			</g>
		</g>
		
			<linearGradient id="SVGID_12_" gradientUnits="userSpaceOnUse" x1="-1542.2949" y1="-4737.0273" x2="-1484.3853" y2="-4737.0273" gradientTransform="matrix(0.8735 0.4868 -0.4868 0.8735 -705.9322 5074.3306)">
			<stop  offset="0" style="stop-color:#353435"/>
			<stop  offset="1" style="stop-color:#202121"/>
		</linearGradient>
		<path fill="url(#SVGID_12_)" d="M297.5,224.1c-3.5-4-8.2-7.8-13.7-10.9c-10.9-6.1-22.3-7.8-30-5.4c0,0-11.6-22.2,7.8-28.6
			c19.4-6.4,49.4,20.5,49.4,20.5L297.5,224.1z"/>
		
			<linearGradient id="SVGID_14_" gradientUnits="userSpaceOnUse" x1="-1753.432" y1="-4739.6357" x2="-1618.4994" y2="-4739.6357" gradientTransform="matrix(0.8735 0.4868 -0.4868 0.8735 -705.9322 5074.3306)">
			<stop  offset="0" style="stop-color:#222222"/>
			<stop  offset="1" style="stop-color:#363837"/>
		</linearGradient>
		<path fill="url(#SVGID_14_)" d="M85.9,51.1c-1.2,2.1-2.2,4.4-3.1,6.7l79.7,133.1l16.7-30L94.8,36.3L85.9,51.1z"/>
		
			<linearGradient id="SVGID_16_" gradientUnits="userSpaceOnUse" x1="-1618.4994" y1="-4745.8599" x2="-1458.6163" y2="-4745.8599" gradientTransform="matrix(0.8735 0.4868 -0.4868 0.8735 -705.9322 5074.3306)">
			<stop  offset="0" style="stop-color:#232323"/>
			<stop  offset="0.4032" style="stop-color:#414141"/>
			<stop  offset="1" style="stop-color:#464646"/>
		</linearGradient>
		<path fill="url(#SVGID_16_)" d="M245.1,223.5c-23-4.1-47.7-12.9-71.9-26.3c-3.7-2-7.3-4.2-10.8-6.3l12.9-23.2l182.4,0.6l-12,21.5
			c-0.7,1.7-1.5,3.3-2.4,4.9c-8.7,15.6-25,25.4-45.9,29.4l16.8-30.1l-5.9-12.3l-51.9-7.1l-5.7,17.9l6.3,9.4L245.1,223.5z"/>
		
			<linearGradient id="SVGID_18_" gradientUnits="userSpaceOnUse" x1="-1753.432" y1="-4797.9917" x2="-1458.6163" y2="-4797.9917" gradientTransform="matrix(0.8735 0.4868 -0.4868 0.8735 -705.9322 5074.3306)">
			<stop  offset="0" style="stop-color:#424242"/>
			<stop  offset="1" style="stop-color:#5F5F5F"/>
		</linearGradient>
		<path fill="url(#SVGID_18_)" d="M355.4,173.1c-8.7,15.6-25,25.4-45.9,29.4c-3.5-4-8.2-7.8-13.7-10.9c-15.8-8.8-32.7-8.5-37.8,0.6
			c-1.6,2.8-1.8,6.2-0.9,9.8c-23-4.1-47.7-12.9-71.9-26.3c-3.7-2-7.3-4.2-10.8-6.3L94.8,36.3c0.9-2.3,1.9-4.5,3.1-6.7
			c8.4-15,23.9-24.7,43.8-29c3,2.9,6.7,5.6,10.8,7.9c15.8,8.8,32.7,8.5,37.8-0.6c1.3-2.3,1.7-5,1.3-7.9c24.3,3.7,50.7,12.7,76.5,27
			c2.7,1.5,5.4,3.1,8,4.6l81.8,136.6C357.1,169.9,356.3,171.5,355.4,173.1z"/>
	</g>
</g>
<g id="Слой_2">
</g>
<g id="Слой_3">
</g>
<g id="Слой_4">
</g>
<g id="Слой_5">
</g>
</svg>
