<?xml version="1.0" encoding="utf-8"?>
<!-- Generator: Adobe Illustrator 17.1.0, SVG Export Plug-In . SVG Version: 6.00 Build 0)  -->
<!DOCTYPE svg PUBLIC "-//W3C//DTD SVG 1.1//EN" "http://www.w3.org/Graphics/SVG/1.1/DTD/svg11.dtd">
<svg version="1.1" xmlns="http://www.w3.org/2000/svg" xmlns:xlink="http://www.w3.org/1999/xlink" x="0px" y="0px" width="252.5px"
	 height="390.2px" viewBox="0 0 252.5 390.2" enable-background="new 0 0 252.5 390.2" xml:space="preserve">
<g id="Слой_1">
	<g>
		<polygon fill="#91A3AD" points="97.5,177.5 92.4,177.9 5,323.6 2.9,313.5 88.5,170.8 88,162.8 101.1,140.2 109.4,157 		"/>
		<polygon fill="#91A3AD" points="116.3,210.9 111.2,211.3 23.8,357 21.7,346.9 107.3,204.2 106.8,196.2 119.9,173.6 128.2,190.4 		
			"/>
		<polygon fill="#91A3AD" points="134.8,244 129.6,244.5 42.2,390.2 40.1,380.1 125.8,237.4 125.2,229.3 138.3,206.8 146.7,223.6 		
			"/>
		<polygon fill="#D6DDE1" points="94.6,175.8 89.5,176.3 2.1,321.9 0,311.8 85.7,169.2 85.1,161.1 98.2,138.5 106.5,155.3 		"/>
		<polygon fill="#D6DDE1" points="113.4,209.2 108.3,209.6 20.9,355.3 18.8,345.2 104.4,202.5 103.9,194.5 117,171.9 125.3,188.7 		
			"/>
		<polygon fill="#D6DDE1" points="131.9,242.4 126.7,242.8 39.3,388.5 37.2,378.4 122.9,235.7 122.3,227.7 135.4,205.1 143.8,221.9 
					"/>
		
			<linearGradient id="SVGID_2_" gradientUnits="userSpaceOnUse" x1="-4957.9854" y1="-2149.146" x2="-4829.2363" y2="-2149.146" gradientTransform="matrix(0.8647 0.5023 -0.5023 0.8647 3318.9868 4431.7783)">
			<stop  offset="0" style="stop-color:#A9A9A9"/>
			<stop  offset="1" style="stop-color:#7B7B7B"/>
		</linearGradient>
		<polygon fill="url(#SVGID_2_)" points="121.8,65.2 150.2,65.5 215.4,160.5 177.3,160.9 		"/>
		
			<linearGradient id="SVGID_4_" gradientUnits="userSpaceOnUse" x1="-4957.9854" y1="-2105.166" x2="-4861.9346" y2="-2105.166" gradientTransform="matrix(0.8647 0.5023 -0.5023 0.8647 3318.9868 4431.7783)">
			<stop  offset="0" style="stop-color:#6B6B6B"/>
			<stop  offset="1" style="stop-color:#454545"/>
		</linearGradient>
		<polygon fill="url(#SVGID_4_)" points="84.7,129.2 121.8,65.2 177.3,160.9 140.2,224.9 		"/>
		
			<linearGradient id="SVGID_6_" gradientUnits="userSpaceOnUse" x1="-4861.9346" y1="-2087.4802" x2="-4829.2363" y2="-2087.4802" gradientTransform="matrix(0.8647 0.5023 -0.5023 0.8647 3318.9868 4431.7783)">
			<stop  offset="0" style="stop-color:#2C2C2C"/>
			<stop  offset="1" style="stop-color:#393939"/>
		</linearGradient>
		<polygon fill="url(#SVGID_6_)" points="177.3,160.9 215.4,160.5 178.2,224.4 140.2,224.9 		"/>
		<polygon fill="#ECF0F4" points="188.2,0 242.2,96.9 252.5,96.5 197.4,0.3 		"/>
		<polygon fill="#AFBEC5" points="242.2,96.9 227.4,122.4 237.7,122.1 252.5,96.5 		"/>
		<polygon fill="#AFBEC5" points="219.2,136.4 205.2,160.7 215.4,160.5 229.6,136.1 		"/>
		<path fill="#EBEFF3" d="M227.4,122.4c-2.5-4.8-8.3-2-9.3,3.6c-1,5.6,1.2,10.4,1.2,10.4l10.3-0.3c0,0-5.3-6-0.7-13.7L227.4,122.4z"
			/>
		
			<linearGradient id="SVGID_8_" gradientUnits="userSpaceOnUse" x1="-4933.3511" y1="-2194.1311" x2="-4837.9761" y2="-2194.1311" gradientTransform="matrix(0.8647 0.5023 -0.5023 0.8647 3318.9868 4431.7783)">
			<stop  offset="0" style="stop-color:#EAEDF0"/>
			<stop  offset="1" style="stop-color:#D1DBDD"/>
		</linearGradient>
		<path fill="url(#SVGID_8_)" d="M242.2,96.9l-14.8,25.5c-2.5-4.8-8.3-2-9.3,3.6c-1,5.6,1.2,10.4,1.2,10.4l-14.1,24.2l-55-95.2
			l14.6-25.1c15.9-1.5,9.6-16.4,9.6-16.4l13.9-24L242.2,96.9z M198.8,62.5c-6.5-0.7-12.8,7-13.9,17.4s3.2,19.3,9.8,20
			c6.5,0.7,12.8-7,13.9-17.4S205.4,63.2,198.8,62.5z"/>
		<path fill="#B1C0C8" d="M190.6,98.1c-4.1-3.2-6.5-10.3-5.6-18.3c1.1-10.3,7.4-18.1,13.9-17.4c5.4,0.6,9.4,6.9,9.9,15
			c-1.2-5.6-4.4-9.8-8.6-10.2c-6-0.7-11.8,6.5-12.8,16C186.6,89.2,187.9,94.7,190.6,98.1z"/>
	</g>
</g>
<g id="Слой_2">
</g>
<g id="Слой_3">
</g>
<g id="Слой_4">
</g>
<g id="Слой_5">
</g>
</svg>
