<?xml version="1.0" encoding="utf-8"?>
<!-- Generator: Adobe Illustrator 17.1.0, SVG Export Plug-In . SVG Version: 6.00 Build 0)  -->
<!DOCTYPE svg PUBLIC "-//W3C//DTD SVG 1.1//EN" "http://www.w3.org/Graphics/SVG/1.1/DTD/svg11.dtd">
<svg version="1.1" xmlns="http://www.w3.org/2000/svg" xmlns:xlink="http://www.w3.org/1999/xlink" x="0px" y="0px" width="246.7px"
	 height="381.4px" viewBox="0 0 246.7 381.4" enable-background="new 0 0 246.7 381.4" xml:space="preserve">
<g id="Слой_1">
	<g>
		<polygon fill="#91A3AD" points="97.8,147.8 91.3,148.4 6.5,297.3 3.7,284.6 86.3,139.5 85.5,129.2 101.9,100.4 112.7,121.7 		"/>
		<polygon fill="#91A3AD" points="122,190 115.5,190.6 30.7,339.5 27.9,326.7 110.5,181.6 109.7,171.4 126.1,142.6 136.9,163.9 		
			"/>
		<polygon fill="#91A3AD" points="145.8,231.9 139.3,232.5 54.5,381.4 51.7,368.6 134.3,223.5 133.5,213.3 149.9,184.5 160.6,205.8 
					"/>
		<polygon fill="#D6DDE1" points="94.1,145.7 87.6,146.3 2.8,295.2 0,282.5 82.6,137.4 81.8,127.1 98.2,98.3 109,119.6 		"/>
		<polygon fill="#D6DDE1" points="118.3,187.9 111.8,188.5 27,337.4 24.2,324.6 106.8,179.5 106,169.3 122.4,140.5 133.2,161.8 		
			"/>
		<polygon fill="#D6DDE1" points="142.1,229.8 135.6,230.4 50.8,379.3 48,366.5 130.6,221.4 129.8,211.2 146.2,182.4 157,203.7 		
			"/>
		
			<linearGradient id="SVGID_2_" gradientUnits="userSpaceOnUse" x1="-3881.4185" y1="-1030.9767" x2="-3728.6575" y2="-1030.9767" gradientTransform="matrix(0.869 0.4948 -0.4948 0.869 2976.3208 2841.123)">
			<stop  offset="0" style="stop-color:#A9A9A9"/>
			<stop  offset="1" style="stop-color:#7B7B7B"/>
		</linearGradient>
		<path fill="url(#SVGID_2_)" d="M242.7,106.4c-7.1,12.5-22.7,18.6-42,18.2L127.5,0c18.7-0.1,41.2,6,62.8,18.3
			C233.1,42.6,256.5,82.1,242.7,106.4z"/>
		
			<linearGradient id="SVGID_4_" gradientUnits="userSpaceOnUse" x1="-3756.1895" y1="-956.9687" x2="-3728.6575" y2="-956.9687" gradientTransform="matrix(0.869 0.4948 -0.4948 0.869 2976.3208 2841.123)">
			<stop  offset="0" style="stop-color:#2C2C2C"/>
			<stop  offset="1" style="stop-color:#393939"/>
		</linearGradient>
		<path fill="url(#SVGID_4_)" d="M200.6,124.6c19.3,0.4,34.9-5.7,42-18.2l-57,100.1l-33.2,2.7L200.6,124.6z"/>
		
			<linearGradient id="SVGID_6_" gradientUnits="userSpaceOnUse" x1="-3881.4185" y1="-974.713" x2="-3756.1895" y2="-974.713" gradientTransform="matrix(0.869 0.4948 -0.4948 0.869 2976.3208 2841.123)">
			<stop  offset="0" style="stop-color:#6B6B6B"/>
			<stop  offset="1" style="stop-color:#454545"/>
		</linearGradient>
		<polygon fill="url(#SVGID_6_)" points="127.5,0 200.6,124.6 152.5,209.2 80.1,83.3 		"/>
	</g>
</g>
<g id="Слой_2">
</g>
<g id="Слой_3">
</g>
<g id="Слой_4">
</g>
<g id="Слой_5">
</g>
</svg>
