<?xml version="1.0" encoding="utf-8"?>
<!-- Generator: Adobe Illustrator 22.0.1, SVG Export Plug-In . SVG Version: 6.00 Build 0)  -->
<svg version="1.1" id="Слой_1" xmlns="http://www.w3.org/2000/svg" xmlns:xlink="http://www.w3.org/1999/xlink" x="0px" y="0px"
	 viewBox="0 0 101.1 128.4" style="enable-background:new 0 0 101.1 128.4;" xml:space="preserve">
<style type="text/css">
	.st0{opacity:0.5;fill:#F6F6F6;}
	.st1{fill:#878787;}
	.st2{fill:url(#SVGID_1_);}
	.st3{fill:url(#SVGID_2_);}
	.st4{fill:url(#SVGID_3_);}
	.st5{fill:url(#SVGID_4_);}
	.st6{fill:url(#SVGID_5_);}
	.st7{fill:url(#SVGID_6_);}
	.st8{fill:url(#SVGID_7_);}
	.st9{fill:url(#SVGID_8_);}
	.st10{fill:url(#SVGID_9_);}
	.st11{fill:url(#SVGID_10_);}
	.st12{clip-path:url(#SVGID_12_);}
	.st13{fill:url(#SVGID_13_);}
	.st14{fill:url(#SVGID_14_);}
	.st15{fill:url(#SVGID_15_);}
	.st16{fill:url(#SVGID_16_);}
	.st17{fill:url(#SVGID_17_);}
	.st18{fill:url(#SVGID_18_);}
	.st19{fill:url(#SVGID_19_);}
	.st20{fill:url(#SVGID_20_);}
	.st21{fill:#1E89E4;}
	.st22{fill:#EBEEF1;}
	.st23{fill:url(#SVGID_21_);}
	.st24{fill:#D0D8DD;}
	.st25{clip-path:url(#SVGID_23_);fill:none;stroke:#90A0A9;stroke-width:0.4291;stroke-miterlimit:10;}
	.st26{fill:url(#SVGID_24_);}
	.st27{clip-path:url(#SVGID_26_);}
	.st28{fill:url(#SVGID_27_);}
	.st29{fill:url(#SVGID_28_);}
	.st30{fill:url(#SVGID_29_);}
	.st31{clip-path:url(#SVGID_31_);fill:none;stroke:url(#SVGID_32_);stroke-width:2.1359;stroke-miterlimit:10;}
	.st32{clip-path:url(#SVGID_31_);fill:none;stroke:url(#SVGID_33_);stroke-width:2.1359;stroke-miterlimit:10;}
	.st33{clip-path:url(#SVGID_31_);fill:none;stroke:url(#SVGID_34_);stroke-width:2.1359;stroke-miterlimit:10;}
	.st34{clip-path:url(#SVGID_31_);fill:none;stroke:url(#SVGID_35_);stroke-width:2.1359;stroke-miterlimit:10;}
	.st35{fill:url(#SVGID_36_);}
	.st36{clip-path:url(#SVGID_38_);}
	.st37{fill:#91A3AD;}
	.st38{fill:#D6DDE1;}
	.st39{fill:url(#SVGID_39_);}
	.st40{fill:url(#SVGID_40_);}
	.st41{fill:url(#SVGID_41_);}
	.st42{fill:#ECF0F4;}
	.st43{fill:#AFBEC5;}
	.st44{fill:#EBEFF3;}
	.st45{fill:url(#SVGID_42_);}
	.st46{fill:#B1C0C8;}
	.st47{fill:url(#SVGID_43_);}
	.st48{clip-path:url(#SVGID_45_);}
	.st49{fill:url(#SVGID_46_);}
	.st50{fill:url(#SVGID_47_);}
	.st51{fill:url(#SVGID_48_);}
	.st52{fill:url(#SVGID_49_);}
	.st53{clip-path:url(#SVGID_51_);}
	.st54{fill:#454547;}
	.st55{fill:url(#SVGID_52_);}
	.st56{fill:#E9EDF1;}
	.st57{fill:url(#SVGID_53_);}
	.st58{fill:url(#SVGID_54_);}
	.st59{fill:#424242;}
	.st60{fill:#212121;}
	.st61{fill:url(#SVGID_55_);}
	.st62{clip-path:url(#SVGID_57_);}
	.st63{fill:#CFD8DD;}
	.st64{fill:#96A8B0;}
	.st65{fill:url(#SVGID_58_);}
	.st66{fill:#FF877E;}
	.st67{fill:url(#SVGID_59_);}
	.st68{fill:#DB2333;}
	.st69{fill:url(#SVGID_60_);}
	.st70{fill:url(#SVGID_61_);}
	.st71{fill:#00BE95;}
	.st72{fill:#009FE3;}
	.st73{fill:#00C0EE;}
	.st74{fill:#861D73;}
	.st75{fill:url(#SVGID_62_);}
	.st76{fill:#F4598A;}
	.st77{fill:#F14941;}
	.st78{fill:url(#SVGID_63_);}
	.st79{fill:#F9B233;}
	.st80{fill:#E6332A;}
	.st81{fill:url(#SVGID_64_);}
	.st82{fill:none;stroke:#878787;stroke-width:0.5;stroke-miterlimit:10;}
	.st83{fill:url(#SVGID_65_);}
	.st84{clip-path:url(#SVGID_67_);fill:url(#SVGID_68_);}
	.st85{clip-path:url(#SVGID_67_);fill:url(#SVGID_69_);}
	.st86{clip-path:url(#SVGID_67_);fill:url(#SVGID_70_);}
	.st87{clip-path:url(#SVGID_67_);fill:url(#SVGID_71_);}
	.st88{clip-path:url(#SVGID_67_);fill:url(#SVGID_72_);}
	.st89{clip-path:url(#SVGID_67_);fill:url(#SVGID_73_);}
	.st90{clip-path:url(#SVGID_67_);fill:url(#SVGID_74_);}
	.st91{clip-path:url(#SVGID_67_);fill:url(#SVGID_75_);}
	.st92{clip-path:url(#SVGID_67_);fill:url(#SVGID_76_);}
	.st93{clip-path:url(#SVGID_67_);fill:url(#SVGID_77_);}
	.st94{clip-path:url(#SVGID_67_);fill:url(#SVGID_78_);}
	.st95{clip-path:url(#SVGID_67_);fill:url(#SVGID_79_);}
	.st96{clip-path:url(#SVGID_67_);fill:url(#SVGID_80_);}
	.st97{clip-path:url(#SVGID_67_);fill:url(#SVGID_81_);}
	.st98{clip-path:url(#SVGID_67_);fill:url(#SVGID_82_);}
	.st99{clip-path:url(#SVGID_67_);fill:url(#SVGID_83_);}
	.st100{clip-path:url(#SVGID_67_);fill:url(#SVGID_84_);}
	.st101{clip-path:url(#SVGID_67_);fill:url(#SVGID_85_);}
	.st102{clip-path:url(#SVGID_67_);fill:url(#SVGID_86_);}
	.st103{clip-path:url(#SVGID_67_);fill:url(#SVGID_87_);}
	.st104{clip-path:url(#SVGID_67_);fill:url(#SVGID_88_);}
	.st105{clip-path:url(#SVGID_67_);fill:url(#SVGID_89_);}
	.st106{clip-path:url(#SVGID_67_);fill:url(#SVGID_90_);}
	.st107{clip-path:url(#SVGID_67_);fill:url(#SVGID_91_);}
	.st108{clip-path:url(#SVGID_67_);fill:url(#SVGID_92_);}
	.st109{clip-path:url(#SVGID_67_);fill:url(#SVGID_93_);}
	.st110{clip-path:url(#SVGID_67_);fill:url(#SVGID_94_);}
	.st111{clip-path:url(#SVGID_67_);fill:url(#SVGID_95_);}
	.st112{clip-path:url(#SVGID_67_);fill:url(#SVGID_96_);}
	.st113{clip-path:url(#SVGID_67_);fill:url(#SVGID_97_);}
	.st114{clip-path:url(#SVGID_67_);fill:url(#SVGID_98_);}
	.st115{clip-path:url(#SVGID_67_);fill:url(#SVGID_99_);}
	.st116{clip-path:url(#SVGID_67_);fill:url(#SVGID_100_);}
	.st117{clip-path:url(#SVGID_67_);fill:url(#SVGID_101_);}
	.st118{clip-path:url(#SVGID_67_);fill:url(#SVGID_102_);}
	.st119{fill:#F35269;}
	.st120{clip-path:url(#SVGID_104_);fill:url(#SVGID_105_);}
	.st121{clip-path:url(#SVGID_104_);fill:url(#SVGID_106_);}
	.st122{clip-path:url(#SVGID_104_);fill:url(#SVGID_107_);}
	.st123{clip-path:url(#SVGID_104_);fill:url(#SVGID_108_);}
	.st124{clip-path:url(#SVGID_104_);fill:url(#SVGID_109_);}
	.st125{clip-path:url(#SVGID_104_);fill:url(#SVGID_110_);}
	.st126{clip-path:url(#SVGID_104_);fill:url(#SVGID_111_);}
	.st127{clip-path:url(#SVGID_104_);fill:url(#SVGID_112_);}
	.st128{clip-path:url(#SVGID_104_);fill:url(#SVGID_113_);}
	.st129{clip-path:url(#SVGID_104_);fill:url(#SVGID_114_);}
	.st130{clip-path:url(#SVGID_104_);fill:url(#SVGID_115_);}
	.st131{clip-path:url(#SVGID_104_);fill:url(#SVGID_116_);}
	.st132{clip-path:url(#SVGID_104_);fill:url(#SVGID_117_);}
	.st133{clip-path:url(#SVGID_104_);fill:url(#SVGID_118_);}
	.st134{clip-path:url(#SVGID_104_);fill:url(#SVGID_119_);}
	.st135{clip-path:url(#SVGID_104_);fill:url(#SVGID_120_);}
	.st136{clip-path:url(#SVGID_104_);fill:url(#SVGID_121_);}
	.st137{clip-path:url(#SVGID_104_);fill:url(#SVGID_122_);}
	.st138{clip-path:url(#SVGID_104_);fill:url(#SVGID_123_);}
	.st139{clip-path:url(#SVGID_104_);fill:url(#SVGID_124_);}
	.st140{clip-path:url(#SVGID_104_);fill:url(#SVGID_125_);}
	.st141{clip-path:url(#SVGID_104_);fill:url(#SVGID_126_);}
	.st142{clip-path:url(#SVGID_104_);fill:url(#SVGID_127_);}
	.st143{clip-path:url(#SVGID_104_);fill:url(#SVGID_128_);}
	.st144{clip-path:url(#SVGID_104_);fill:url(#SVGID_129_);}
	.st145{clip-path:url(#SVGID_104_);fill:url(#SVGID_130_);}
	.st146{clip-path:url(#SVGID_104_);fill:url(#SVGID_131_);}
	.st147{clip-path:url(#SVGID_104_);fill:url(#SVGID_132_);}
	.st148{clip-path:url(#SVGID_104_);fill:url(#SVGID_133_);}
	.st149{clip-path:url(#SVGID_104_);fill:url(#SVGID_134_);}
	.st150{clip-path:url(#SVGID_104_);fill:url(#SVGID_135_);}
	.st151{clip-path:url(#SVGID_104_);fill:url(#SVGID_136_);}
	.st152{clip-path:url(#SVGID_104_);fill:url(#SVGID_137_);}
	.st153{clip-path:url(#SVGID_104_);fill:url(#SVGID_138_);}
	.st154{clip-path:url(#SVGID_104_);fill:url(#SVGID_139_);}
	.st155{fill:#F7B033;}
	.st156{clip-path:url(#SVGID_141_);fill:url(#SVGID_142_);}
	.st157{clip-path:url(#SVGID_141_);fill:url(#SVGID_143_);}
	.st158{clip-path:url(#SVGID_141_);fill:url(#SVGID_144_);}
	.st159{clip-path:url(#SVGID_141_);fill:url(#SVGID_145_);}
	.st160{clip-path:url(#SVGID_141_);fill:url(#SVGID_146_);}
	.st161{clip-path:url(#SVGID_141_);fill:url(#SVGID_147_);}
	.st162{clip-path:url(#SVGID_141_);fill:url(#SVGID_148_);}
	.st163{clip-path:url(#SVGID_141_);fill:url(#SVGID_149_);}
	.st164{clip-path:url(#SVGID_141_);fill:url(#SVGID_150_);}
	.st165{clip-path:url(#SVGID_141_);fill:url(#SVGID_151_);}
	.st166{clip-path:url(#SVGID_141_);fill:url(#SVGID_152_);}
	.st167{clip-path:url(#SVGID_141_);fill:url(#SVGID_153_);}
	.st168{clip-path:url(#SVGID_141_);fill:url(#SVGID_154_);}
	.st169{clip-path:url(#SVGID_141_);fill:url(#SVGID_155_);}
	.st170{clip-path:url(#SVGID_141_);fill:url(#SVGID_156_);}
	.st171{clip-path:url(#SVGID_141_);fill:url(#SVGID_157_);}
	.st172{clip-path:url(#SVGID_141_);fill:url(#SVGID_158_);}
	.st173{clip-path:url(#SVGID_141_);fill:url(#SVGID_159_);}
	.st174{clip-path:url(#SVGID_141_);fill:url(#SVGID_160_);}
	.st175{clip-path:url(#SVGID_141_);fill:url(#SVGID_161_);}
	.st176{clip-path:url(#SVGID_141_);fill:url(#SVGID_162_);}
	.st177{clip-path:url(#SVGID_141_);fill:url(#SVGID_163_);}
	.st178{clip-path:url(#SVGID_141_);fill:url(#SVGID_164_);}
	.st179{clip-path:url(#SVGID_141_);fill:url(#SVGID_165_);}
	.st180{clip-path:url(#SVGID_141_);fill:url(#SVGID_166_);}
	.st181{clip-path:url(#SVGID_141_);fill:url(#SVGID_167_);}
	.st182{clip-path:url(#SVGID_141_);fill:url(#SVGID_168_);}
	.st183{clip-path:url(#SVGID_141_);fill:url(#SVGID_169_);}
	.st184{clip-path:url(#SVGID_141_);fill:url(#SVGID_170_);}
	.st185{clip-path:url(#SVGID_141_);fill:url(#SVGID_171_);}
	.st186{clip-path:url(#SVGID_141_);fill:url(#SVGID_172_);}
	.st187{clip-path:url(#SVGID_141_);fill:url(#SVGID_173_);}
	.st188{clip-path:url(#SVGID_141_);fill:url(#SVGID_174_);}
	.st189{clip-path:url(#SVGID_141_);fill:url(#SVGID_175_);}
	.st190{clip-path:url(#SVGID_141_);fill:url(#SVGID_176_);}
	.st191{fill:#994BD1;}
	.st192{clip-path:url(#SVGID_178_);fill:url(#SVGID_179_);}
	.st193{clip-path:url(#SVGID_178_);fill:url(#SVGID_180_);}
	.st194{clip-path:url(#SVGID_178_);fill:url(#SVGID_181_);}
	.st195{clip-path:url(#SVGID_178_);fill:url(#SVGID_182_);}
	.st196{clip-path:url(#SVGID_178_);fill:url(#SVGID_183_);}
	.st197{clip-path:url(#SVGID_178_);fill:url(#SVGID_184_);}
	.st198{clip-path:url(#SVGID_178_);fill:url(#SVGID_185_);}
	.st199{clip-path:url(#SVGID_178_);fill:url(#SVGID_186_);}
	.st200{clip-path:url(#SVGID_178_);fill:url(#SVGID_187_);}
	.st201{clip-path:url(#SVGID_178_);fill:url(#SVGID_188_);}
	.st202{clip-path:url(#SVGID_178_);fill:url(#SVGID_189_);}
	.st203{clip-path:url(#SVGID_178_);fill:url(#SVGID_190_);}
	.st204{clip-path:url(#SVGID_178_);fill:url(#SVGID_191_);}
	.st205{clip-path:url(#SVGID_178_);fill:url(#SVGID_192_);}
	.st206{clip-path:url(#SVGID_178_);fill:url(#SVGID_193_);}
	.st207{clip-path:url(#SVGID_178_);fill:url(#SVGID_194_);}
	.st208{clip-path:url(#SVGID_178_);fill:url(#SVGID_195_);}
	.st209{clip-path:url(#SVGID_178_);fill:url(#SVGID_196_);}
	.st210{clip-path:url(#SVGID_178_);fill:url(#SVGID_197_);}
	.st211{clip-path:url(#SVGID_178_);fill:url(#SVGID_198_);}
	.st212{clip-path:url(#SVGID_178_);fill:url(#SVGID_199_);}
	.st213{clip-path:url(#SVGID_178_);fill:url(#SVGID_200_);}
	.st214{clip-path:url(#SVGID_178_);fill:url(#SVGID_201_);}
	.st215{clip-path:url(#SVGID_178_);fill:url(#SVGID_202_);}
	.st216{clip-path:url(#SVGID_178_);fill:url(#SVGID_203_);}
	.st217{clip-path:url(#SVGID_178_);fill:url(#SVGID_204_);}
	.st218{clip-path:url(#SVGID_178_);fill:url(#SVGID_205_);}
	.st219{clip-path:url(#SVGID_178_);fill:url(#SVGID_206_);}
	.st220{clip-path:url(#SVGID_178_);fill:url(#SVGID_207_);}
	.st221{clip-path:url(#SVGID_178_);fill:url(#SVGID_208_);}
	.st222{clip-path:url(#SVGID_178_);fill:url(#SVGID_209_);}
	.st223{clip-path:url(#SVGID_178_);fill:url(#SVGID_210_);}
	.st224{clip-path:url(#SVGID_178_);fill:url(#SVGID_211_);}
	.st225{clip-path:url(#SVGID_178_);fill:url(#SVGID_212_);}
	.st226{clip-path:url(#SVGID_178_);fill:url(#SVGID_213_);}
	.st227{fill:#F3A852;}
	.st228{clip-path:url(#SVGID_215_);fill:url(#SVGID_216_);}
	.st229{clip-path:url(#SVGID_215_);fill:url(#SVGID_217_);}
	.st230{clip-path:url(#SVGID_215_);fill:url(#SVGID_218_);}
	.st231{clip-path:url(#SVGID_215_);fill:url(#SVGID_219_);}
	.st232{clip-path:url(#SVGID_215_);fill:url(#SVGID_220_);}
	.st233{clip-path:url(#SVGID_215_);fill:url(#SVGID_221_);}
	.st234{clip-path:url(#SVGID_215_);fill:url(#SVGID_222_);}
	.st235{clip-path:url(#SVGID_215_);fill:url(#SVGID_223_);}
	.st236{clip-path:url(#SVGID_215_);fill:url(#SVGID_224_);}
	.st237{clip-path:url(#SVGID_215_);fill:url(#SVGID_225_);}
	.st238{clip-path:url(#SVGID_215_);fill:url(#SVGID_226_);}
	.st239{clip-path:url(#SVGID_215_);fill:url(#SVGID_227_);}
	.st240{clip-path:url(#SVGID_215_);fill:url(#SVGID_228_);}
	.st241{clip-path:url(#SVGID_215_);fill:url(#SVGID_229_);}
	.st242{clip-path:url(#SVGID_215_);fill:url(#SVGID_230_);}
	.st243{clip-path:url(#SVGID_215_);fill:url(#SVGID_231_);}
	.st244{clip-path:url(#SVGID_215_);fill:url(#SVGID_232_);}
	.st245{clip-path:url(#SVGID_215_);fill:url(#SVGID_233_);}
	.st246{clip-path:url(#SVGID_215_);fill:url(#SVGID_234_);}
	.st247{clip-path:url(#SVGID_215_);fill:url(#SVGID_235_);}
	.st248{clip-path:url(#SVGID_215_);fill:url(#SVGID_236_);}
	.st249{clip-path:url(#SVGID_215_);fill:url(#SVGID_237_);}
	.st250{clip-path:url(#SVGID_215_);fill:url(#SVGID_238_);}
	.st251{clip-path:url(#SVGID_215_);fill:url(#SVGID_239_);}
	.st252{clip-path:url(#SVGID_215_);fill:url(#SVGID_240_);}
	.st253{clip-path:url(#SVGID_215_);fill:url(#SVGID_241_);}
	.st254{clip-path:url(#SVGID_215_);fill:url(#SVGID_242_);}
	.st255{clip-path:url(#SVGID_215_);fill:url(#SVGID_243_);}
	.st256{clip-path:url(#SVGID_215_);fill:url(#SVGID_244_);}
	.st257{clip-path:url(#SVGID_215_);fill:url(#SVGID_245_);}
	.st258{clip-path:url(#SVGID_215_);fill:url(#SVGID_246_);}
	.st259{clip-path:url(#SVGID_215_);fill:url(#SVGID_247_);}
	.st260{clip-path:url(#SVGID_215_);fill:url(#SVGID_248_);}
	.st261{clip-path:url(#SVGID_215_);fill:url(#SVGID_249_);}
	.st262{clip-path:url(#SVGID_215_);fill:url(#SVGID_250_);}
	.st263{fill:#1C8BEC;}
	.st264{clip-path:url(#SVGID_252_);fill:url(#SVGID_253_);}
	.st265{clip-path:url(#SVGID_252_);fill:url(#SVGID_254_);}
	.st266{clip-path:url(#SVGID_252_);fill:url(#SVGID_255_);}
	.st267{clip-path:url(#SVGID_252_);fill:url(#SVGID_256_);}
	.st268{clip-path:url(#SVGID_252_);fill:url(#SVGID_257_);}
	.st269{clip-path:url(#SVGID_252_);fill:url(#SVGID_258_);}
	.st270{clip-path:url(#SVGID_252_);fill:url(#SVGID_259_);}
	.st271{clip-path:url(#SVGID_252_);fill:url(#SVGID_260_);}
	.st272{clip-path:url(#SVGID_252_);fill:url(#SVGID_261_);}
	.st273{clip-path:url(#SVGID_252_);fill:url(#SVGID_262_);}
	.st274{clip-path:url(#SVGID_252_);fill:url(#SVGID_263_);}
	.st275{clip-path:url(#SVGID_252_);fill:url(#SVGID_264_);}
	.st276{clip-path:url(#SVGID_252_);fill:url(#SVGID_265_);}
	.st277{clip-path:url(#SVGID_252_);fill:url(#SVGID_266_);}
	.st278{clip-path:url(#SVGID_252_);fill:url(#SVGID_267_);}
	.st279{clip-path:url(#SVGID_252_);fill:url(#SVGID_268_);}
	.st280{clip-path:url(#SVGID_252_);fill:url(#SVGID_269_);}
	.st281{clip-path:url(#SVGID_252_);fill:url(#SVGID_270_);}
	.st282{clip-path:url(#SVGID_252_);fill:url(#SVGID_271_);}
	.st283{clip-path:url(#SVGID_252_);fill:url(#SVGID_272_);}
	.st284{clip-path:url(#SVGID_252_);fill:url(#SVGID_273_);}
	.st285{clip-path:url(#SVGID_252_);fill:url(#SVGID_274_);}
	.st286{clip-path:url(#SVGID_252_);fill:url(#SVGID_275_);}
	.st287{clip-path:url(#SVGID_252_);fill:url(#SVGID_276_);}
	.st288{clip-path:url(#SVGID_252_);fill:url(#SVGID_277_);}
	.st289{clip-path:url(#SVGID_252_);fill:url(#SVGID_278_);}
	.st290{clip-path:url(#SVGID_252_);fill:url(#SVGID_279_);}
	.st291{clip-path:url(#SVGID_252_);fill:url(#SVGID_280_);}
	.st292{clip-path:url(#SVGID_252_);fill:url(#SVGID_281_);}
	.st293{clip-path:url(#SVGID_252_);fill:url(#SVGID_282_);}
	.st294{clip-path:url(#SVGID_252_);fill:url(#SVGID_283_);}
	.st295{clip-path:url(#SVGID_252_);fill:url(#SVGID_284_);}
	.st296{clip-path:url(#SVGID_252_);fill:url(#SVGID_285_);}
	.st297{clip-path:url(#SVGID_252_);fill:url(#SVGID_286_);}
	.st298{clip-path:url(#SVGID_252_);fill:url(#SVGID_287_);}
	.st299{fill:#556782;}
	.st300{clip-path:url(#SVGID_289_);fill:none;stroke:#6F7E95;stroke-width:0.6519;stroke-miterlimit:10;}
	.st301{fill:#0BBC93;}
	.st302{clip-path:url(#SVGID_291_);fill:none;stroke:#6DD7BE;stroke-width:0.6519;stroke-miterlimit:10;}
	.st303{fill:url(#SVGID_292_);}
	.st304{clip-path:url(#SVGID_294_);}
	.st305{fill:url(#SVGID_295_);}
	.st306{fill:url(#SVGID_296_);}
	.st307{fill:url(#SVGID_297_);}
	.st308{fill:url(#SVGID_298_);}
	.st309{fill:url(#SVGID_299_);}
	.st310{fill:url(#SVGID_300_);}
	.st311{fill:url(#SVGID_301_);}
	.st312{fill:url(#SVGID_302_);}
	.st313{fill:url(#SVGID_303_);}
	.st314{clip-path:url(#SVGID_305_);fill:none;stroke:#90A0A9;stroke-width:0.4291;stroke-miterlimit:10;}
</style>
<g>
	<path d="M15,123.4l-2.6,5.1h-1.7l2.5-5.1l-2.5-5.1h1.7L15,123.4z M18.5,123.4l2.5-5.1h-1.7l-2.5,5.1l2.6,5.1h1.7L18.5,123.4z
		 M0,123.3c0,0.7,0.1,1.4,0.4,2c0.3,0.6,0.6,1.2,1.1,1.6s1,0.8,1.7,1.1c0.6,0.3,1.3,0.4,2,0.4c1,0,1.8-0.2,2.6-0.7
		c0.8-0.5,1.4-1.1,1.9-1.9l-1.1-1.1c-0.2,0.3-0.4,0.6-0.6,0.9c-0.3,0.3-0.5,0.5-0.8,0.7c-0.3,0.2-0.6,0.3-0.9,0.4
		c-0.3,0.1-0.7,0.2-1,0.2c-0.5,0-1-0.1-1.4-0.3c-0.4-0.2-0.8-0.5-1.2-0.8c-0.3-0.3-0.6-0.7-0.8-1.1c-0.2-0.4-0.3-0.9-0.3-1.4
		c0-0.5,0.1-1,0.3-1.4s0.5-0.8,0.8-1.2c0.3-0.3,0.7-0.6,1.2-0.8c0.4-0.2,0.9-0.3,1.4-0.3c0.4,0,0.7,0.1,1.1,0.2
		c0.3,0.1,0.7,0.3,1,0.5c0.3,0.2,0.6,0.5,0.8,0.8c0.2,0.3,0.4,0.6,0.6,1l1.3-0.8c-0.2-0.5-0.5-0.9-0.8-1.3c-0.3-0.4-0.7-0.7-1.1-1
		c-0.4-0.3-0.9-0.5-1.3-0.7c-0.5-0.2-1-0.2-1.5-0.2c-0.7,0-1.4,0.1-2,0.4c-0.6,0.3-1.2,0.6-1.7,1.1s-0.8,1-1.1,1.6
		C0.1,122,0,122.6,0,123.3z M30.4,119.7v-1.4h-7.8v10.2h7.8V127h-6.2v-7.3H30.4z M25.2,122.6v1.5h5.1v-1.5H25.2z M42.4,118.2
		l-3.8,7.6l-3.8-7.6h-2.3v10.2h1.6v-8.1l4.1,8.1H39l4.1-8.2v8.2h1.6v-10.2H42.4z M49.3,128.4h7.9l-5.1-10.2h-0.8l-5.1,10.2H48
		l3.8-7.6l3,6.2H50L49.3,128.4z M56.4,118.2v1.4H60v8.8h1.6v-8.8h3.6v-1.4H56.4z M74.6,118.2l-5.8,8.3v-8.3h-1.6v10.2h2.1l5.9-8.3
		v8.3h1.5v-10.2H74.6z M78.8,118.2v10.2h1.6v-10.2H78.8z M86.4,123.4l2.5-5.1h-1.7l-2.2,4.4h-3.6v1.5H85l2.2,4.3h1.7L86.4,123.4z
		 M93.2,128.4h7.9L96,118.2h-0.8L90,128.4h1.8l3.8-7.6l3,6.2h-4.7L93.2,128.4z"/>
	<linearGradient id="SVGID_1_" gradientUnits="userSpaceOnUse" x1="47.898" y1="97.7138" x2="47.898" y2="0">
		<stop  offset="0" style="stop-color:#E6332A"/>
		<stop  offset="1" style="stop-color:#F9B233"/>
	</linearGradient>
	<path class="st2" d="M90.4,81.7l-16.6-15c-5,5.5-12.2,8.7-19.6,8.7c-8.8,0-16.9-4.3-21.9-11.5c-3-4.4-4.6-9.6-4.6-15
		c0-5.4,1.6-10.6,4.7-15c4.9-7.2,13.1-11.5,21.8-11.5c7.5,0,14.6,3.2,19.6,8.7l16.5-15C81.1,5.8,68,0,54.2,0
		C38.1,0,23.1,7.9,14,21.2c-5.6,8.1-8.6,17.7-8.6,27.7c0,9.9,3,19.5,8.6,27.6C23,89.8,38.1,97.7,54.2,97.7
		C68,97.7,81.2,91.9,90.4,81.7z"/>
	<g>
		<defs>
			<path id="SVGID_293_" d="M134.6,50.6c0,6.8-56.1,11.1-60.3,15.8c-4.9,5.5-12,9-20,9c-14.7,0-26.7-11.9-26.7-26.7
				s11.9-82.2,26.7-82.2C100.5-33.5,134.6,35.8,134.6,50.6z"/>
		</defs>
		<clipPath id="SVGID_2_">
			<use xlink:href="#SVGID_293_"  style="overflow:visible;"/>
		</clipPath>
		<g style="clip-path:url(#SVGID_2_);">
			
				<linearGradient id="SVGID_3_" gradientUnits="userSpaceOnUse" x1="-801.1319" y1="-1616.6926" x2="-799.1295" y2="-1616.6926" gradientTransform="matrix(0.8157 0.5784 -0.5784 0.8157 -250.224 1850.3048)">
				<stop  offset="0" style="stop-color:#728C9A"/>
				<stop  offset="1" style="stop-color:#B1BEC3"/>
			</linearGradient>
			<polygon class="st4" points="22.1,84.8 20.5,83.6 42.4,52.6 44.1,53.8 			"/>
			
				<linearGradient id="SVGID_4_" gradientUnits="userSpaceOnUse" x1="-784.2542" y1="-1616.6926" x2="-782.2517" y2="-1616.6926" gradientTransform="matrix(0.8157 0.5784 -0.5784 0.8157 -250.224 1850.3048)">
				<stop  offset="0" style="stop-color:#728C9A"/>
				<stop  offset="1" style="stop-color:#B1BEC3"/>
			</linearGradient>
			<polygon class="st5" points="35.9,94.5 34.2,93.4 56.2,62.4 57.8,63.6 			"/>
			<linearGradient id="SVGID_5_" gradientUnits="userSpaceOnUse" x1="39.8743" y1="44.993" x2="48.301" y2="50.9685">
				<stop  offset="0" style="stop-color:#1776D0"/>
				<stop  offset="1" style="stop-color:#1566C2"/>
			</linearGradient>
			<path class="st6" d="M52,45.7L44.3,56c-5.1-5.6-4.8-10.5-4.8-10.5l4.3-5.7L52,45.7z"/>
			<linearGradient id="SVGID_6_" gradientUnits="userSpaceOnUse" x1="47.8449" y1="50.9986" x2="65.145" y2="63.2664">
				<stop  offset="0" style="stop-color:#A7B6BF"/>
				<stop  offset="1" style="stop-color:#CDD6DB"/>
			</linearGradient>
			<path class="st7" d="M69.1,57.8L65,63.5c0,0-6.5,3.3-16.3-3.6c-1.8-1.3-3.3-2.6-4.4-3.9L52,45.7L69.1,57.8z"/>
			
				<linearGradient id="SVGID_7_" gradientUnits="userSpaceOnUse" x1="-807.6312" y1="-1646.2057" x2="-796.3703" y2="-1646.2057" gradientTransform="matrix(0.8157 0.5784 -0.5784 0.8157 -250.224 1850.3048)">
				<stop  offset="0" style="stop-color:#0E5FB8"/>
				<stop  offset="1" style="stop-color:#1049AA"/>
			</linearGradient>
			<path class="st8" d="M48.3,50.9c-5.3-5.8-4.7-11.1-4.7-11.1s3.4-1.1,2.9-4.1l8.3,5.9l-3,4.2C51.8,45.8,52,49.6,48.3,50.9z"/>
			
				<linearGradient id="SVGID_8_" gradientUnits="userSpaceOnUse" x1="-797.4144" y1="-1645.9419" x2="-776.4489" y2="-1645.9419" gradientTransform="matrix(0.8157 0.5784 -0.5784 0.8157 -250.224 1850.3048)">
				<stop  offset="0" style="stop-color:#7C929F"/>
				<stop  offset="1" style="stop-color:#90A4AE"/>
			</linearGradient>
			<path class="st9" d="M69,57.8c0,0-6.7,3.6-16.5-3.3c-1.7-1.2-3.1-2.4-4.2-3.7c3.6-1.3,3.5-5.1,3.5-5.1l3-4.2l17.1,12.1
				C68.7,54.9,69,57.8,69,57.8z"/>
			<linearGradient id="SVGID_9_" gradientUnits="userSpaceOnUse" x1="51.7708" y1="28.1225" x2="60.4855" y2="34.2247">
				<stop  offset="0" style="stop-color:#1776D0"/>
				<stop  offset="1" style="stop-color:#1566C2"/>
			</linearGradient>
			<path class="st10" d="M69.1,21.6L51.7,46.8C46,41,46.5,35.7,46.5,35.7l14.4-19.9L69.1,21.6z"/>
			<linearGradient id="SVGID_10_" gradientUnits="userSpaceOnUse" x1="60.1715" y1="34.3373" x2="77.2775" y2="46.315">
				<stop  offset="0" style="stop-color:#A7B6BF"/>
				<stop  offset="1" style="stop-color:#CDD6DB"/>
			</linearGradient>
			<path class="st11" d="M86.1,33.7l-14.2,20c0,0-6.5,3.4-16.3-3.5c-1.6-1.1-2.9-2.2-3.9-3.3l17.4-25.2L86.1,33.7z"/>
			<path class="st21" d="M82.4,21.6l-17.7,6.3c-4.1-4.4-5.8-9.2-3.8-12.1c2.6-3.7,10.4-2.7,17.4,2.2C79.8,19.1,81.2,20.3,82.4,21.6z
				"/>
			<path class="st22" d="M86.1,33.7c-2.6,3.7-10.4,2.7-17.4-2.2c-1.5-1.1-2.9-2.3-4.1-3.5l17.7-6.3C86.5,25.9,88.2,30.8,86.1,33.7z"
				/>
			
				<linearGradient id="SVGID_12_" gradientUnits="userSpaceOnUse" x1="-800.3303" y1="-1683.6655" x2="-783.4919" y2="-1670.5099" gradientTransform="matrix(0.8157 0.5784 -0.5784 0.8157 -250.224 1850.3048)">
				<stop  offset="0.5" style="stop-color:#186BC5"/>
				<stop  offset="0.5" style="stop-color:#B4BEC5"/>
			</linearGradient>
			<path style="fill:url(#SVGID_12_);" d="M84.3,31.6c-1.8,2.6-8,1.3-13.7-2.8s-9-9.5-7.2-12c1.8-2.6,8-1.3,13.7,2.8
				S86.2,29,84.3,31.6z"/>
			
				<ellipse transform="matrix(0.5784 -0.8157 0.8157 0.5784 11.0288 70.4233)" class="st24" cx="73.6" cy="24.5" rx="5.7" ry="12.8"/>
			<g>
				<defs>
					
						<ellipse id="SVGID_304_" transform="matrix(0.5784 -0.8157 0.8157 0.5784 11.0288 70.4233)" cx="73.6" cy="24.5" rx="5.7" ry="12.8"/>
				</defs>
				<clipPath id="SVGID_13_">
					<use xlink:href="#SVGID_304_"  style="overflow:visible;"/>
				</clipPath>
				
					<line style="clip-path:url(#SVGID_13_);fill:none;stroke:#90A0A9;stroke-width:0.4291;stroke-miterlimit:10;" x1="66.8" y1="10.3" x2="81.1" y2="38.7"/>
				
					<line style="clip-path:url(#SVGID_13_);fill:none;stroke:#90A0A9;stroke-width:0.4291;stroke-miterlimit:10;" x1="89.7" y1="26.5" x2="58.2" y2="22.4"/>
			</g>
		</g>
	</g>
</g>
</svg>
